<svg width="24" height="24" viewBox="0 0 24 24" fill="none" xmlns="http://www.w3.org/2000/svg">
<g id="icon_history_h">
<g id="Group 5826">
<g id="Group 5024">
<path id="Subtract" fill-rule="evenodd" clip-rule="evenodd" d="M4 2C2.89543 2 2 2.89543 2 4V20C2 21.1046 2.89543 22 4 22H10.8096C9.6888 20.8321 9 19.2465 9 17.5C9 13.9101 11.9101 11 15.5 11C17.2465 11 18.8321 11.6888 20 12.8096V4C20 2.89543 19.1046 2 18 2H4ZM5.5 7C5.22386 7 5 7.22386 5 7.5C5 7.77614 5.22386 8 5.5 8H16.5C16.7761 8 17 7.77614 17 7.5C17 7.22386 16.7761 7 16.5 7H5.5ZM5 11.5C5 11.2239 5.22386 11 5.5 11H9.5C9.77614 11 10 11.2239 10 11.5C10 11.7761 9.77614 12 9.5 12H5.5C5.22386 12 5 11.7761 5 11.5Z" fill="#4B79FF"/>
<path id="Subtract_2" fill-rule="evenodd" clip-rule="evenodd" d="M21 17.5C21 20.5376 18.5376 23 15.5 23C12.4624 23 10 20.5376 10 17.5C10 14.4624 12.4624 12 15.5 12C18.5376 12 21 14.4624 21 17.5ZM15.5 14C15.7761 14 16 14.2239 16 14.5V17L18.5 17C18.7761 17 19 17.2239 19 17.5C19 17.7761 18.7761 18 18.5 18L15.5007 18C15.5005 18 15.5002 18 15.5 18C15.2239 18 15 17.7761 15 17.5V14.5C15 14.2239 15.2239 14 15.5 14Z" fill="#4B79FF"/>
</g>
</g>
</g>
</svg>
