<svg width="16" height="16" viewBox="0 0 16 16" fill="none" xmlns="http://www.w3.org/2000/svg">
<g id="icon_set_h">
<g id="Group 5870">
<path id="Vector" d="M6.0655 14.4793C6.32642 14.5569 6.60153 14.4116 6.68443 14.1523C6.86258 13.595 7.38498 13.1924 8.00009 13.1924C8.6152 13.1924 9.13761 13.595 9.31576 14.1523C9.39865 14.4116 9.67377 14.5569 9.93469 14.4793C11.0698 14.1413 12.0793 13.5141 12.8783 12.684C13.0559 12.4994 13.0653 12.2105 12.9002 12.0148C12.6972 11.7743 12.5753 11.4645 12.5753 11.125C12.5753 10.3624 13.1936 9.74416 13.9562 9.74416C14.0026 9.74416 14.0484 9.74644 14.0936 9.75088C14.3484 9.77592 14.581 9.60436 14.6323 9.35347C14.7225 8.9127 14.7697 8.45675 14.7697 7.99023C14.7697 7.28345 14.6612 6.60107 14.4597 5.95932C14.3934 5.74842 14.1965 5.60605 13.9755 5.60921L13.9562 5.60934C13.1936 5.60934 12.5753 4.9911 12.5753 4.22846C12.5753 4.00862 12.6264 3.80213 12.7167 3.61883C12.8144 3.42071 12.7705 3.18198 12.6087 3.03157C11.8263 2.30404 10.8707 1.75903 9.80995 1.46539C9.58103 1.40202 9.33912 1.50846 9.23117 1.72004C9.00217 2.16892 8.53638 2.47454 8.00009 2.47454C7.46381 2.47454 6.99802 2.16892 6.76901 1.72004C6.66107 1.50846 6.41916 1.40202 6.19024 1.46539C5.12945 1.75903 4.17388 2.30404 3.39145 3.03157C3.22969 3.18198 3.18579 3.42071 3.28346 3.61883C3.37383 3.80213 3.42484 4.00862 3.42484 4.22846C3.42484 4.9911 2.80659 5.60934 2.04395 5.60934L2.02469 5.60921C1.80365 5.60605 1.60678 5.74842 1.54053 5.95932C1.33895 6.60107 1.23047 7.28346 1.23047 7.99023C1.23047 8.45675 1.27773 8.91269 1.36788 9.35347C1.4192 9.60436 1.65178 9.77592 1.90663 9.75088C1.95179 9.74645 1.99759 9.74416 2.04395 9.74416C2.80659 9.74416 3.42484 10.3624 3.42484 11.125C3.42484 11.4645 3.30297 11.7743 3.10002 12.0148C2.93486 12.2105 2.94431 12.4994 3.12189 12.684C3.92084 13.5141 4.9304 14.1413 6.0655 14.4793Z" stroke="#5068FF" stroke-linejoin="round"/>
<path id="Vector_2" d="M9.6944 7.99014C9.6944 8.92592 8.93581 9.68451 8.00003 9.68451C7.06426 9.68451 6.30566 8.92592 6.30566 7.99014C6.30566 7.05437 7.06426 6.29578 8.00003 6.29578C8.93581 6.29578 9.6944 7.05437 9.6944 7.99014Z" stroke="#5068FF" stroke-linejoin="round"/>
</g>
</g>
</svg>
