<svg width="14" height="14" viewBox="0 0 14 14" fill="none" xmlns="http://www.w3.org/2000/svg">
<g id="icon_wen_h">
<circle id="Ellipse 463" cx="7" cy="7" r="6.5" stroke="#4B79FF"/>
<path id="?" d="M6.52148 9.2373C6.51823 9.12012 6.5166 9.03223 6.5166 8.97363C6.5166 8.62858 6.56543 8.33073 6.66309 8.08008C6.7347 7.89128 6.85026 7.70085 7.00977 7.50879C7.12695 7.36882 7.33691 7.16536 7.63965 6.89844C7.94564 6.62826 8.14421 6.41341 8.23535 6.25391C8.3265 6.0944 8.37207 5.92025 8.37207 5.73145C8.37207 5.38965 8.23861 5.09017 7.97168 4.83301C7.70475 4.57259 7.3776 4.44238 6.99023 4.44238C6.61589 4.44238 6.30339 4.55957 6.05273 4.79395C5.80208 5.02832 5.6377 5.39453 5.55957 5.89258L4.65625 5.78516C4.73763 5.11784 4.97852 4.60677 5.37891 4.25195C5.78255 3.89714 6.31478 3.71973 6.97559 3.71973C7.67546 3.71973 8.23372 3.91016 8.65039 4.29102C9.06706 4.67188 9.27539 5.13249 9.27539 5.67285C9.27539 5.98535 9.20215 6.27344 9.05566 6.53711C8.90918 6.80078 8.62272 7.12142 8.19629 7.49902C7.90983 7.75293 7.72266 7.9401 7.63477 8.06055C7.54688 8.18099 7.48177 8.31934 7.43945 8.47559C7.39714 8.63184 7.37272 8.88574 7.36621 9.2373H6.52148ZM6.46777 11V9.99902H7.46875V11H6.46777Z" fill="#4B79FF"/>
</g>
</svg>
