<svg width="16" height="16" viewBox="0 0 16 16" fill="none" xmlns="http://www.w3.org/2000/svg">
<g id="icon_set">
<g id="Group 5870">
<path id="Vector" d="M6.06538 14.4793C6.3263 14.5569 6.60141 14.4116 6.68431 14.1523C6.86246 13.595 7.38486 13.1924 7.99997 13.1924C8.61508 13.1924 9.13748 13.595 9.31564 14.1523C9.39853 14.4116 9.67365 14.5569 9.93457 14.4793C11.0697 14.1413 12.0792 13.5141 12.8782 12.684C13.0557 12.4994 13.0652 12.2105 12.9 12.0148C12.6971 11.7743 12.5752 11.4645 12.5752 11.125C12.5752 10.3624 13.1935 9.74416 13.9561 9.74416C14.0025 9.74416 14.0483 9.74644 14.0934 9.75088C14.3483 9.77592 14.5809 9.60436 14.6322 9.35347C14.7223 8.9127 14.7696 8.45675 14.7696 7.99023C14.7696 7.28345 14.6611 6.60107 14.4595 5.95932C14.3933 5.74842 14.1964 5.60605 13.9754 5.60921L13.9561 5.60934C13.1935 5.60934 12.5752 4.9911 12.5752 4.22846C12.5752 4.00862 12.6262 3.80213 12.7166 3.61883C12.8143 3.42071 12.7704 3.18198 12.6086 3.03157C11.8262 2.30404 10.8706 1.75903 9.80983 1.46539C9.58091 1.40202 9.339 1.50846 9.23105 1.72004C9.00205 2.16892 8.53626 2.47454 7.99997 2.47454C7.46369 2.47454 6.9979 2.16892 6.76889 1.72004C6.66095 1.50846 6.41904 1.40202 6.19011 1.46539C5.12933 1.75903 4.17376 2.30404 3.39133 3.03157C3.22956 3.18198 3.18567 3.42071 3.28334 3.61883C3.37371 3.80213 3.42472 4.00862 3.42472 4.22846C3.42472 4.9911 2.80647 5.60934 2.04383 5.60934L2.02457 5.60921C1.80353 5.60605 1.60665 5.74842 1.54041 5.95932C1.33883 6.60107 1.23035 7.28346 1.23035 7.99023C1.23035 8.45675 1.2776 8.91269 1.36776 9.35347C1.41907 9.60436 1.65165 9.77592 1.90651 9.75088C1.95167 9.74645 1.99747 9.74416 2.04383 9.74416C2.80647 9.74416 3.42472 10.3624 3.42472 11.125C3.42472 11.4645 3.30285 11.7743 3.09989 12.0148C2.93474 12.2105 2.94419 12.4994 3.12177 12.684C3.92072 13.5141 4.93028 14.1413 6.06538 14.4793Z" stroke="#454545" stroke-linejoin="round"/>
<path id="Vector_2" d="M9.6944 7.99027C9.6944 8.92604 8.93581 9.68464 8.00003 9.68464C7.06426 9.68464 6.30566 8.92604 6.30566 7.99027C6.30566 7.05449 7.06426 6.2959 8.00003 6.2959C8.93581 6.2959 9.6944 7.05449 9.6944 7.99027Z" stroke="#454545" stroke-linejoin="round"/>
</g>
</g>
</svg>
