<svg width="20" height="20" viewBox="0 0 20 20" fill="none" xmlns="http://www.w3.org/2000/svg">
<g id="&#228;&#184;&#138;&#228;&#188;&#160;">
<g id="Group 5411">
<g id="Group 5033">
<path id="Vector 464" d="M2.5 14.1726V16.5059C2.5 17.0582 2.94772 17.5059 3.5 17.5059H16.5C17.0523 17.5059 17.5 17.0582 17.5 16.5059V14.1726" stroke="#5068FF" stroke-linecap="round"/>
</g>
<path id="Vector" fill-rule="evenodd" clip-rule="evenodd" d="M16.2391 7.70168C16.5087 7.94797 16.3344 8.39697 15.9693 8.39697L13.4893 8.39697L13.4893 13.6C13.4893 13.8209 13.3102 14 13.0893 14L6.89059 14C6.66967 14 6.49059 13.8209 6.49059 13.6L6.49059 8.39697L4.0306 8.39697C3.66551 8.39697 3.49126 7.948 3.76076 7.7017L9.72972 2.2466C9.88251 2.10696 10.1166 2.10696 10.2694 2.24658L16.2391 7.70168Z" fill="#5068FF"/>
</g>
</g>
</svg>
