<svg width="420" height="44" viewBox="0 0 420 44" fill="none" xmlns="http://www.w3.org/2000/svg">
<g id="zhucepic">
<g id="Group 5716">
<rect id="Rectangle 2599" width="420" height="44" fill="url(#paint0_linear_430_1671)"/>
<g id="&#230;&#152;&#159; 2">
<path id="Star 4" d="M410.686 27.3236C410.966 27.119 411.356 27.3442 411.319 27.6893L410.981 30.8447C410.97 30.9435 410.997 31.0428 411.055 31.1231L412.926 33.6866C413.131 33.967 412.905 34.3571 412.56 34.3201L409.405 33.9818C409.306 33.9713 409.207 33.9978 409.126 34.0564L406.563 35.927C406.283 36.1316 405.892 35.9064 405.929 35.5613L406.268 32.4059C406.278 32.3071 406.252 32.2078 406.193 32.1275L404.323 29.564C404.118 29.2836 404.343 28.8935 404.688 28.9305L407.844 29.2687C407.942 29.2793 408.042 29.2527 408.122 29.1941L410.686 27.3236Z" fill="#FF9503"/>
<path id="Star 5" opacity="0.4" d="M392.072 16.5271C392.212 16.4248 392.407 16.5374 392.388 16.71L392.079 19.5921C392.074 19.6415 392.087 19.6912 392.117 19.7313L393.825 22.0728C393.928 22.213 393.815 22.4081 393.642 22.3896L390.76 22.0806C390.711 22.0753 390.661 22.0886 390.621 22.1179L388.28 23.8265C388.139 23.9288 387.944 23.8162 387.963 23.6437L388.272 20.7616C388.277 20.7121 388.264 20.6625 388.234 20.6224L386.526 18.2809C386.424 18.1406 386.536 17.9456 386.709 17.9641L389.591 18.273C389.64 18.2783 389.69 18.265 389.73 18.2357L392.072 16.5271Z" fill="#FF9503"/>
<path id="Star 6" opacity="0.4" d="M408.634 6.42374C408.704 6.37258 408.802 6.42889 408.792 6.51518L408.612 8.19766C408.609 8.22237 408.616 8.24719 408.631 8.26726L409.628 9.63416C409.679 9.70427 409.623 9.80179 409.537 9.79254L407.854 9.6122C407.829 9.60955 407.805 9.6162 407.785 9.63085L406.418 10.6283C406.348 10.6794 406.25 10.6231 406.259 10.5368L406.44 8.85435C406.442 8.82964 406.436 8.80482 406.421 8.78475L405.424 7.41784C405.372 7.34774 405.429 7.25022 405.515 7.25947L407.198 7.43981C407.222 7.44246 407.247 7.43581 407.267 7.42116L408.634 6.42374Z" fill="#FF9503"/>
</g>
<g id="&#230;&#152;&#159;&#230;&#152;&#159; 1">
<path id="Star 1" d="M21.8842 15.8261C22.0248 15.5087 22.4752 15.5087 22.6158 15.8261L24.7192 20.5769C24.7595 20.6678 24.8322 20.7405 24.9231 20.7808L29.6739 22.8842C29.9913 23.0248 29.9913 23.4752 29.6739 23.6158L24.9231 25.7192C24.8322 25.7595 24.7595 25.8322 24.7192 25.9231L22.6158 30.6739C22.4752 30.9913 22.0248 30.9913 21.8842 30.6739L19.7808 25.9231C19.7405 25.8322 19.6678 25.7595 19.5769 25.7192L14.8261 23.6158C14.5087 23.4752 14.5087 23.0248 14.8261 22.8842L19.5769 20.7808C19.6678 20.7405 19.7405 20.6678 19.7808 20.5769L21.8842 15.8261Z" fill="#78C1FF"/>
<path id="Star 2" opacity="0.2" d="M8.63425 7.82607C8.77479 7.50866 9.22522 7.50866 9.36575 7.82607L9.85811 8.93808C9.89836 9.02899 9.97101 9.10164 10.0619 9.14189L11.1739 9.63425C11.4913 9.77479 11.4913 10.2252 11.1739 10.3658L10.0619 10.8581C9.97101 10.8984 9.89836 10.971 9.85811 11.0619L9.36575 12.1739C9.22521 12.4913 8.77478 12.4913 8.63425 12.1739L8.14189 11.0619C8.10164 10.971 8.02899 10.8984 7.93808 10.8581L6.82607 10.3658C6.50866 10.2252 6.50866 9.77478 6.82607 9.63425L7.93808 9.14189C8.02899 9.10164 8.10164 9.02899 8.14189 8.93808L8.63425 7.82607Z" fill="#78C1FF"/>
<path id="Star 3" opacity="0.7" d="M4.13425 27.8261C4.27479 27.5087 4.72522 27.5087 4.86575 27.8261L5.81843 29.9778C5.85868 30.0687 5.93134 30.1413 6.02224 30.1816L8.17393 31.1342C8.49134 31.2748 8.49134 31.7252 8.17393 31.8658L6.02224 32.8184C5.93134 32.8587 5.85868 32.9313 5.81843 33.0222L4.86575 35.1739C4.72521 35.4913 4.27478 35.4913 4.13425 35.1739L3.18157 33.0222C3.14132 32.9313 3.06866 32.8587 2.97776 32.8184L0.826073 31.8658C0.508661 31.7252 0.508661 31.2748 0.826073 31.1342L2.97776 30.1816C3.06866 30.1413 3.14132 30.0687 3.18157 29.9778L4.13425 27.8261Z" fill="#78C1FF"/>
</g>
<g id="Group 5736">

<!-- <text x="35" y="33" font-size="18" font-weight="600" fill="url(#paint1_linear_430_1671)">Sign up and get 6 credits for FREE</text> -->
</g>
</g>
</g>
<defs>
<linearGradient id="paint0_linear_430_1671" x1="0" y1="26.5877" x2="420" y2="26.5876" gradientUnits="userSpaceOnUse">
<stop stop-color="#E0F5FF"/>
<stop offset="0.491914" stop-color="#FEE4FE"/>
<stop offset="1" stop-color="#FFF1DE"/>
</linearGradient>
<linearGradient id="paint1_linear_430_1671" x1="57" y1="24.5024" x2="344" y2="24.5023" gradientUnits="userSpaceOnUse">
<stop stop-color="#3888FF"/>
<stop offset="0.541667" stop-color="#FF36F5"/>
<stop offset="1" stop-color="#FF9900"/>
</linearGradient>
</defs>
</svg>
